<svg width="40" height="40" viewBox="0 0 40 40" fill="none" xmlns="http://www.w3.org/2000/svg">
<path d="M6.25 7.5H3.75C3.05964 7.5 2.5 8.05964 2.5 8.75V35C2.5 35.6904 3.05964 36.25 3.75 36.25H6.25C6.94036 36.25 7.5 35.6904 7.5 35V8.75C7.5 8.05964 6.94036 7.5 6.25 7.5Z" fill="#FAEAEE" stroke="#8D2037" stroke-width="2.5" stroke-linejoin="round"/>
<path d="M17.5 12.5H10C9.30964 12.5 8.75 13.0596 8.75 13.75V35C8.75 35.6904 9.30964 36.25 10 36.25H17.5C18.1904 36.25 18.75 35.6904 18.75 35V13.75C18.75 13.0596 18.1904 12.5 17.5 12.5Z" fill="#FAEAEE" stroke="#8D2037" stroke-width="2.5" stroke-linejoin="round"/>
<path d="M8.75 17.5H18.75M8.75 31.25H18.75" stroke="#8D2037" stroke-width="2.5" stroke-linecap="round" stroke-linejoin="round"/>
<path d="M26.25 3.75H21.25C20.5596 3.75 20 4.30964 20 5V35C20 35.6904 20.5596 36.25 21.25 36.25H26.25C26.9404 36.25 27.5 35.6904 27.5 35V5C27.5 4.30964 26.9404 3.75 26.25 3.75Z" fill="#FAEAEE" stroke="#8D2037" stroke-width="2.5" stroke-linejoin="round"/>
<path d="M33.0047 7.50855L29.8485 7.84058C28.9797 7.93199 28.35 8.74449 28.4477 9.64527L31.1758 34.7695C31.2742 35.6703 32.0641 36.332 32.9328 36.2414L36.0891 35.9093C36.9578 35.8179 37.5875 35.0054 37.4899 34.1046L34.7656 8.98433C34.6633 8.07965 33.8735 7.41715 33.0047 7.50855Z" fill="#FAEAEE" stroke="#8D2037" stroke-width="2.5" stroke-linejoin="round"/>
</svg>
