<svg width="40" height="40" viewBox="0 0 40 40" fill="none" xmlns="http://www.w3.org/2000/svg">
<path d="M28.75 32.4891V5.625C28.7486 5.12816 28.5506 4.65209 28.1992 4.30077C27.8479 3.94945 27.3718 3.75144 26.875 3.75H5.625C5.12816 3.75144 4.65209 3.94945 4.30077 4.30077C3.94945 4.65209 3.75144 5.12816 3.75 5.625V33.125C3.75247 33.953 4.08251 34.7465 4.66802 35.332C5.25354 35.9175 6.04696 36.2475 6.875 36.25H32.5" fill="#FAEAEE"/>
<path d="M28.75 32.4891V5.625C28.7486 5.12816 28.5506 4.65209 28.1992 4.30077C27.8479 3.94945 27.3718 3.75144 26.875 3.75H5.625C5.12816 3.75144 4.65209 3.94945 4.30077 4.30077C3.94945 4.65209 3.75144 5.12816 3.75 5.625V33.125C3.75247 33.953 4.08251 34.7465 4.66802 35.332C5.25354 35.9175 6.04696 36.2475 6.875 36.25H32.5" stroke="#8D2037" stroke-width="2.5" stroke-linejoin="round"/>
<path d="M32.5 36.25C31.5054 36.25 30.5516 35.8549 29.8483 35.1517C29.1451 34.4484 28.75 33.4946 28.75 32.5V10H34.375C34.8723 10 35.3492 10.1975 35.7008 10.5492C36.0525 10.9008 36.25 11.3777 36.25 11.875V32.5C36.25 33.4946 35.8549 34.4484 35.1517 35.1517C34.4484 35.8549 33.4946 36.25 32.5 36.25Z" fill="#FAEAEE" stroke="#8D2037" stroke-width="2.5" stroke-linejoin="round"/>
<path d="M18.75 10H23.75M18.75 15H23.75M8.75 20H23.75M8.75 25H23.75M8.75 30H23.75" stroke="#8D2037" stroke-width="2.5" stroke-linecap="round" stroke-linejoin="round"/>
<path d="M13.75 16.25H8.75C8.41848 16.25 8.10054 16.1183 7.86612 15.8839C7.6317 15.6495 7.5 15.3315 7.5 15V10C7.5 9.66848 7.6317 9.35054 7.86612 9.11612C8.10054 8.8817 8.41848 8.75 8.75 8.75H13.75C14.0815 8.75 14.3995 8.8817 14.6339 9.11612C14.8683 9.35054 15 9.66848 15 10V15C15 15.3315 14.8683 15.6495 14.6339 15.8839C14.3995 16.1183 14.0815 16.25 13.75 16.25Z" fill="#8D2037"/>
</svg>
